<svg xmlns="http://www.w3.org/2000/svg" viewBox="0 0 520 780" width="520" height="780">
  <path d="M110 330 Q110 150 260 150 Q410 150 410 330 L410 700 Q410 760 360 760 L160 760 Q110 760 110 700 Z" fill="#7b4a2f"/>
  <path d="M150 780 Q150 640 260 620 Q370 640 370 780 Z" fill="#33415c"/>
  <path d="M210 632 L260 700 L310 632 L300 700 L220 700 Z" fill="#e9eef7"/>
  <rect x="252" y="690" width="16" height="42" fill="#c0354a"/>
  <rect x="236" y="560" width="48" height="80" rx="20" fill="#f2c6a0"/>
  <ellipse cx="260" cy="430" rx="132" ry="150" fill="#ffd9b8"/>
  <circle cx="132" cy="440" r="20" fill="#ffd0ab"/>
  <circle cx="388" cy="440" r="20" fill="#ffd0ab"/>
  <path d="M128 430 Q120 250 260 240 Q400 250 392 430 Q360 330 300 320 Q300 380 250 388 Q210 360 215 322 Q165 340 128 430 Z" fill="#8a5436"/>
  <path d="M128 430 Q120 300 175 270 L200 470 Q150 470 128 430 Z" fill="#7b4a2f"/>
  <path d="M392 430 Q400 300 345 270 L320 470 Q370 470 392 430 Z" fill="#7b4a2f"/>
  <!-- worried eyebrows (inner ends raised) -->
  <path d="M192 402 L240 414" stroke="#6e4327" stroke-width="8" fill="none" stroke-linecap="round"/>
  <path d="M280 414 L328 402" stroke="#6e4327" stroke-width="8" fill="none" stroke-linecap="round"/>
  <ellipse cx="215" cy="452" rx="26" ry="30" fill="#ffffff"/>
  <ellipse cx="305" cy="452" rx="26" ry="30" fill="#ffffff"/>
  <circle cx="217" cy="456" r="16" fill="#7a5bbf"/>
  <circle cx="303" cy="456" r="16" fill="#7a5bbf"/>
  <circle cx="217" cy="456" r="7" fill="#2a2030"/>
  <circle cx="303" cy="456" r="7" fill="#2a2030"/>
  <circle cx="223" cy="450" r="4" fill="#ffffff"/>
  <circle cx="309" cy="450" r="4" fill="#ffffff"/>
  <path d="M258 474 q6 8 -2 14" stroke="#e0a878" stroke-width="3" fill="none" stroke-linecap="round"/>
  <!-- downturned mouth -->
  <path d="M242 518 Q260 504 278 518" stroke="#c0506a" stroke-width="5" fill="none" stroke-linecap="round"/>
</svg>
