<svg xmlns="http://www.w3.org/2000/svg" viewBox="0 0 520 780" width="520" height="780">
  <!-- back hair -->
  <path d="M110 330 Q110 150 260 150 Q410 150 410 330 L410 700 Q410 760 360 760 L160 760 Q110 760 110 700 Z" fill="#7b4a2f"/>
  <!-- uniform / shoulders -->
  <path d="M150 780 Q150 640 260 620 Q370 640 370 780 Z" fill="#33415c"/>
  <!-- sailor collar -->
  <path d="M210 632 L260 700 L310 632 L300 700 L220 700 Z" fill="#e9eef7"/>
  <rect x="252" y="690" width="16" height="42" fill="#c0354a"/>
  <!-- neck -->
  <rect x="236" y="560" width="48" height="80" rx="20" fill="#f2c6a0"/>
  <!-- head -->
  <ellipse cx="260" cy="430" rx="132" ry="150" fill="#ffd9b8"/>
  <circle cx="132" cy="440" r="20" fill="#ffd0ab"/>
  <circle cx="388" cy="440" r="20" fill="#ffd0ab"/>
  <!-- bangs -->
  <path d="M128 430 Q120 250 260 240 Q400 250 392 430 Q360 330 300 320 Q300 380 250 388 Q210 360 215 322 Q165 340 128 430 Z" fill="#8a5436"/>
  <path d="M128 430 Q120 300 175 270 L200 470 Q150 470 128 430 Z" fill="#7b4a2f"/>
  <path d="M392 430 Q400 300 345 270 L320 470 Q370 470 392 430 Z" fill="#7b4a2f"/>
  <!-- eyebrows -->
  <rect x="190" y="408" width="50" height="8" rx="4" fill="#6e4327"/>
  <rect x="280" y="408" width="50" height="8" rx="4" fill="#6e4327"/>
  <!-- eyes -->
  <ellipse cx="215" cy="450" rx="26" ry="30" fill="#ffffff"/>
  <ellipse cx="305" cy="450" rx="26" ry="30" fill="#ffffff"/>
  <circle cx="217" cy="452" r="16" fill="#7a5bbf"/>
  <circle cx="303" cy="452" r="16" fill="#7a5bbf"/>
  <circle cx="217" cy="452" r="7" fill="#2a2030"/>
  <circle cx="303" cy="452" r="7" fill="#2a2030"/>
  <circle cx="223" cy="446" r="4" fill="#ffffff"/>
  <circle cx="309" cy="446" r="4" fill="#ffffff"/>
  <!-- nose + mouth -->
  <path d="M258 472 q6 8 -2 14" stroke="#e0a878" stroke-width="3" fill="none" stroke-linecap="round"/>
  <path d="M242 508 Q260 520 278 508" stroke="#c0506a" stroke-width="5" fill="none" stroke-linecap="round"/>
</svg>
