<svg xmlns="http://www.w3.org/2000/svg" viewBox="0 0 520 780" width="520" height="780">
  <path d="M110 330 Q110 150 260 150 Q410 150 410 330 L410 700 Q410 760 360 760 L160 760 Q110 760 110 700 Z" fill="#7b4a2f"/>
  <path d="M150 780 Q150 640 260 620 Q370 640 370 780 Z" fill="#33415c"/>
  <path d="M210 632 L260 700 L310 632 L300 700 L220 700 Z" fill="#e9eef7"/>
  <rect x="252" y="690" width="16" height="42" fill="#c0354a"/>
  <rect x="236" y="560" width="48" height="80" rx="20" fill="#f2c6a0"/>
  <ellipse cx="260" cy="430" rx="132" ry="150" fill="#ffd9b8"/>
  <circle cx="132" cy="440" r="20" fill="#ffd0ab"/>
  <circle cx="388" cy="440" r="20" fill="#ffd0ab"/>
  <path d="M128 430 Q120 250 260 240 Q400 250 392 430 Q360 330 300 320 Q300 380 250 388 Q210 360 215 322 Q165 340 128 430 Z" fill="#8a5436"/>
  <path d="M128 430 Q120 300 175 270 L200 470 Q150 470 128 430 Z" fill="#7b4a2f"/>
  <path d="M392 430 Q400 300 345 270 L320 470 Q370 470 392 430 Z" fill="#7b4a2f"/>
  <!-- blush -->
  <ellipse cx="178" cy="492" rx="22" ry="12" fill="#ff9bb0" opacity="0.55"/>
  <ellipse cx="342" cy="492" rx="22" ry="12" fill="#ff9bb0" opacity="0.55"/>
  <!-- raised eyebrows -->
  <rect x="190" y="400" width="50" height="8" rx="4" fill="#6e4327"/>
  <rect x="280" y="400" width="50" height="8" rx="4" fill="#6e4327"/>
  <!-- happy eyes (slightly closed, upward curve) -->
  <path d="M192 452 Q215 432 238 452" stroke="#2a2030" stroke-width="8" fill="none" stroke-linecap="round"/>
  <path d="M282 452 Q305 432 328 452" stroke="#2a2030" stroke-width="8" fill="none" stroke-linecap="round"/>
  <path d="M258 472 q6 8 -2 14" stroke="#e0a878" stroke-width="3" fill="none" stroke-linecap="round"/>
  <!-- open smile -->
  <path d="M232 504 Q260 542 288 504 Q260 522 232 504 Z" fill="#b34a64"/>
</svg>
